<?xml version="1.0" encoding="UTF-8" standalone="no" ?>
<!DOCTYPE svg PUBLIC "-//W3C//DTD SVG 1.1//EN" "http://www.w3.org/Graphics/SVG/1.1/DTD/svg11.dtd">
<svg class="box__svg" xmlns="http://www.w3.org/2000/svg" xmlns:xlink="http://www.w3.org/1999/xlink" version="1.1" width="400" height="400" viewBox="0 0 400 400" xml:space="preserve">
<desc>Created with Fabric.js 3.6.2</desc>
<defs>
</defs>
<g transform="matrix(1.56 0 0 1.56 239.06 257.81)" id="Layer_1"  >
<circle style="stroke: rgb(0,174,239); stroke-width: 4; stroke-dasharray: none; stroke-linecap: round; stroke-dashoffset: 0; stroke-linejoin: round; stroke-miterlimit: 10; fill: none; fill-rule: nonzero; opacity: 1;"  cx="0" cy="0" r="8" />
</g>
<g transform="matrix(1.56 0 0 1.56 176.56 257.81)" id="Layer_1"  >
<circle style="stroke: rgb(0,174,239); stroke-width: 4; stroke-dasharray: none; stroke-linecap: round; stroke-dashoffset: 0; stroke-linejoin: round; stroke-miterlimit: 10; fill: none; fill-rule: nonzero; opacity: 1;"  cx="0" cy="0" r="8" />
</g>
<g transform="matrix(1.56 0 0 1.56 213.35 192.19)" id="Layer_1"  >
<path style="stroke: rgb(0,174,239); stroke-width: 4; stroke-dasharray: none; stroke-linecap: round; stroke-dashoffset: 0; stroke-linejoin: round; stroke-miterlimit: 10; fill: none; fill-rule: nonzero; opacity: 1;"  transform=" translate(-72.54, -59)" d="M 29 33 h 83.0800705 c 2.8071136 0 4.7410736 2.8159065 3.7333832 5.4359169 L 99.8765564 79.8718338 C 98.6882782 82.9613724 95.7199707 85 92.4097977 85 H 45.6081238 c -3.8357391 0 -7.1316795 -2.722496 -7.8560524 -6.4892197 L 29 33 z" stroke-linecap="round" />
</g>
<g transform="matrix(1.56 0 0 1.56 132.26 140.63)" id="Layer_1"  >
<path style="stroke: rgb(0,174,239); stroke-width: 4; stroke-dasharray: none; stroke-linecap: round; stroke-dashoffset: 0; stroke-linejoin: round; stroke-miterlimit: 10; fill: none; fill-rule: nonzero; opacity: 1;"  transform=" translate(-20.64, -26.01)" d="M 28.9455147 33.0107765 l -1.5162468 -7.5799599 C 26.6812878 21.6915436 23.3980236 19 19.5846729 19 h -7.2409086" stroke-linecap="round" />
</g>
<g transform="matrix(1.56 0 0 1.56 242.82 170.31)" id="Layer_1"  >
<line style="stroke: rgb(0,174,239); stroke-width: 4; stroke-dasharray: none; stroke-linecap: round; stroke-dashoffset: 0; stroke-linejoin: round; stroke-miterlimit: 10; fill: none; fill-rule: nonzero; opacity: 1;"  x1="-1.5001029999999957" y1="0" x2="1.5001029999999957" y2="0" />
</g>
<g transform="matrix(1.56 0 0 1.56 188.21 170.31)" id="Layer_1"  >
<line style="stroke: rgb(0,174,239); stroke-width: 4; stroke-dasharray: none; stroke-linecap: round; stroke-dashoffset: 0; stroke-linejoin: round; stroke-miterlimit: 10; fill: none; fill-rule: nonzero; opacity: 1;"  x1="-24.452095049999997" y1="0" x2="24.452095049999997" y2="0" />
</g>
</svg>