<svg id="Capa_1" data-name="Capa 1" xmlns="http://www.w3.org/2000/svg" viewBox="0 0 419.3 434.9"><title>refresh</title><path fill='#27300f' d="M232.8,22A209.94,209.94,0,0,0,86.7,80.8V22a16.1,16.1,0,0,0-32.2,0v96.6a16.13,16.13,0,0,0,11,15.3l96.6,32.2a16.13,16.13,0,1,0,10.2-30.6l-71.4-23.7C166.8,40,278.4,35.3,350.2,101.2s76.5,177.5,10.6,249.3A176.44,176.44,0,0,1,56.9,201.8a16.1,16.1,0,1,0-31.7-5.7v.3a214.39,214.39,0,0,0-2.9,34.9C22.4,347,116,440.7,231.6,440.8c115.6.3,209.7-93.2,210-208.8S348.4,22.3,232.8,22Z" transform="translate(-22.3 -5.9)"/></svg>